<svg width="46" height="46" viewBox="0 0 46 46" fill="none" xmlns="http://www.w3.org/2000/svg">
<g filter="url(#filter0_i_1286_70)">
<g filter="url(#filter1_i_1286_70)">
<path d="M14.0657 9.23611C15.0455 8.03676 16.5158 7.3457 18.0645 7.35662L23.1014 7.39215L28.1381 7.45161C29.6867 7.46989 31.1437 8.18855 32.1008 9.40617L35.2134 13.3663L38.3072 17.3412C39.2585 18.5634 39.605 20.1506 39.2498 21.658L38.0943 26.5607L36.9156 31.4579C36.5532 32.9636 35.5283 34.2241 34.1283 34.8862L29.5748 37.0397L25.0111 39.1714C23.6079 39.8269 21.9834 39.8115 20.5928 39.1297L16.0701 36.9123L11.5581 34.6734C10.1707 33.985 9.16984 32.7054 8.83587 31.1931L7.74969 26.2746L6.6869 21.351C6.36013 19.8371 6.73656 18.2567 7.71068 17.0527L10.8789 13.1369L14.0657 9.23611Z" fill="url(#paint0_linear_1286_70)" fill-opacity="0.2"/>
</g>
<path d="M23.1061 6.99855L23.1042 6.99853L18.0673 6.96301C16.3995 6.95125 14.8161 7.69547 13.7609 8.98708L10.5741 12.8878L10.5729 12.8893L7.40468 16.8051C6.35562 18.1017 5.95023 19.8037 6.30214 21.434L7.36493 26.3576L7.36533 26.3595L8.45151 31.278C8.81117 32.9066 9.88907 34.2847 11.3831 35.026L15.8952 37.2649L15.8969 37.2657L20.4195 39.4832C21.9171 40.2174 23.6666 40.2339 25.1777 39.528L29.7414 37.3963L29.7431 37.3955L34.2965 35.2421C35.8043 34.529 36.908 33.1715 37.2983 31.55L38.477 26.6528L38.4775 26.651L39.6329 21.7483C40.0155 20.1249 39.6423 18.4156 38.6179 17.0995L35.5241 13.1245L35.5229 13.1231L32.4102 9.16293C31.3796 7.85165 29.8105 7.07771 28.1427 7.05802L23.1061 6.99855Z" stroke="url(#paint1_linear_1286_70)" stroke-width="0.787241"/>
</g>
<path d="M20.6305 17.0633C20.9857 16.9652 21.367 16.9815 21.7107 17.1096C22.0545 17.2376 22.34 17.4697 22.5198 17.7672L22.5807 17.8781L23.1173 18.9726C23.2805 19.3048 23.3334 19.6736 23.2696 20.0331C23.2058 20.3927 23.028 20.7272 22.7585 20.9949L22.6513 21.0931L21.8037 21.817C21.651 21.9495 21.7655 22.4621 22.3184 23.3386C22.8145 24.1273 23.2196 24.4956 23.4177 24.5157H23.4526L23.4957 24.5082L25.1601 24.0417C25.3838 23.9789 25.6225 23.9764 25.8477 24.0346C26.0729 24.0927 26.275 24.2092 26.4299 24.3698L26.5046 24.4554L27.6055 25.8542C27.8216 26.1283 27.9293 26.4616 27.911 26.7993C27.8927 27.137 27.7495 27.459 27.5049 27.7121L27.4058 27.8058L26.965 28.1883C26.5698 28.5312 26.0755 28.763 25.5408 28.856C25.0061 28.9489 24.4535 28.8993 23.9487 28.7128C22.3777 28.1325 20.9504 26.8066 19.6537 24.7486C18.3547 22.6853 17.8148 20.887 18.0559 19.3468C18.129 18.8812 18.3383 18.4423 18.6616 18.077C18.985 17.7116 19.4103 17.4333 19.8924 17.2717L20.0491 17.2241L20.6305 17.0633Z" fill="url(#paint2_linear_1286_70)"/>
<defs>
<filter id="filter0_i_1286_70" x="5.78418" y="4.60123" width="34.3896" height="35.8382" filterUnits="userSpaceOnUse" color-interpolation-filters="sRGB">
<feFlood flood-opacity="0" result="BackgroundImageFix"/>
<feBlend mode="normal" in="SourceGraphic" in2="BackgroundImageFix" result="shape"/>
<feColorMatrix in="SourceAlpha" type="matrix" values="0 0 0 0 0 0 0 0 0 0 0 0 0 0 0 0 0 0 127 0" result="hardAlpha"/>
<feOffset dy="-1.9681"/>
<feGaussianBlur stdDeviation="2.36172"/>
<feComposite in2="hardAlpha" operator="arithmetic" k2="-1" k3="1"/>
<feColorMatrix type="matrix" values="0 0 0 0 0.0414556 0 0 0 0 0.509132 0 0 0 0 0.796115 0 0 0 0.35 0"/>
<feBlend mode="normal" in2="shape" result="effect1_innerShadow_1286_70"/>
</filter>
<filter id="filter1_i_1286_70" x="5.78418" y="3.42037" width="34.3896" height="37.0191" filterUnits="userSpaceOnUse" color-interpolation-filters="sRGB">
<feFlood flood-opacity="0" result="BackgroundImageFix"/>
<feBlend mode="normal" in="SourceGraphic" in2="BackgroundImageFix" result="shape"/>
<feColorMatrix in="SourceAlpha" type="matrix" values="0 0 0 0 0 0 0 0 0 0 0 0 0 0 0 0 0 0 127 0" result="hardAlpha"/>
<feOffset dy="-3.14896"/>
<feGaussianBlur stdDeviation="2.36172"/>
<feComposite in2="hardAlpha" operator="arithmetic" k2="-1" k3="1"/>
<feColorMatrix type="matrix" values="0 0 0 0 0.00392157 0 0 0 0 0.878431 0 0 0 0 1 0 0 0 0.35 0"/>
<feBlend mode="normal" in2="shape" result="effect1_innerShadow_1286_70"/>
</filter>
<linearGradient id="paint0_linear_1286_70" x1="15.6153" y1="7.33935" x2="30.294" y2="38.57" gradientUnits="userSpaceOnUse">
<stop stop-color="#B49525" stop-opacity="0.7"/>
<stop offset="1" stop-color="#62E3FF" stop-opacity="0.24"/>
<stop offset="1" stop-color="#CCFF00" stop-opacity="0.7"/>
</linearGradient>
<linearGradient id="paint1_linear_1286_70" x1="29.0948" y1="7.57795" x2="17.7748" y2="38.9757" gradientUnits="userSpaceOnUse">
<stop stop-color="#FAFF00"/>
<stop offset="1" stop-color="#EBFF01"/>
</linearGradient>
<linearGradient id="paint2_linear_1286_70" x1="20.1098" y1="17.2762" x2="20.0683" y2="28.023" gradientUnits="userSpaceOnUse">
<stop stop-color="#FF9700"/>
<stop offset="1" stop-color="#FF6B00"/>
</linearGradient>
</defs>
</svg>
