<svg width="100" height="107" viewBox="0 0 100 107" fill="none" xmlns="http://www.w3.org/2000/svg">
<mask id="mask0_1274_271" style="mask-type:alpha" maskUnits="userSpaceOnUse" x="4" y="15" width="92" height="92">
<path d="M50.0004 106.061C75.1043 106.061 95.455 85.7107 95.455 60.6069C95.455 35.503 75.1043 15.1523 50.0004 15.1523C24.8966 15.1523 4.5459 35.503 4.5459 60.6069C4.5459 85.7107 24.8966 106.061 50.0004 106.061Z" fill="#7D6F6F"/>
</mask>
<g mask="url(#mask0_1274_271)">
<path d="M49.9995 106.061C75.1033 106.061 95.454 85.7107 95.454 60.6069C95.454 35.503 75.1033 15.1523 49.9995 15.1523C24.8956 15.1523 4.54492 35.503 4.54492 60.6069C4.54492 85.7107 24.8956 106.061 49.9995 106.061Z" fill="#969696"/>
<path d="M95.455 15.1523H4.5459V106.061H95.455V15.1523Z" fill="#2A2E33"/>
</g>
<mask id="mask1_1274_271" style="mask-type:alpha" maskUnits="userSpaceOnUse" x="0" y="0" width="100" height="107">
<path d="M4.54545 60.6061C4.54545 85.7099 24.8961 106.061 50 106.061C75.1039 106.061 95.4545 85.7099 95.4545 60.6061H100V0H0V60.6061H4.54545Z" fill="white"/>
</mask>
<g mask="url(#mask1_1274_271)">
<mask id="mask2_1274_271" style="mask-type:alpha" maskUnits="userSpaceOnUse" x="12" y="13" width="76" height="94">
<path d="M59.0898 68.4126V75.3782H60.605C75.6673 75.3782 87.8777 87.5886 87.8777 102.651V106.06H12.1201V102.651C12.1201 87.5886 24.3305 75.3782 39.3928 75.3782H40.908V68.4126C34.3787 65.3109 29.6854 58.9717 28.9024 51.4695C26.696 51.1576 24.9989 49.2615 24.9989 46.9691V41.666C24.9989 39.4138 26.637 37.5441 28.7868 37.1834V34.8479C28.7868 23.1327 38.2838 13.6357 49.9989 13.6357C61.714 13.6357 71.211 23.1327 71.211 34.8479V37.1834C73.3608 37.5441 74.9989 39.4138 74.9989 41.666V46.9691C74.9989 49.2615 73.3018 51.1576 71.0954 51.4695C70.3125 58.9717 65.6191 65.3109 59.0898 68.4126Z" fill="white"/>
</mask>
<g mask="url(#mask2_1274_271)">
<path d="M59.0898 68.4126V75.3782H60.605C75.6673 75.3782 87.8777 87.5886 87.8777 102.651V106.06H12.1201V102.651C12.1201 87.5886 24.3305 75.3782 39.3928 75.3782H40.908V68.4126C34.3787 65.3109 29.6854 58.9717 28.9024 51.4695C26.696 51.1576 24.9989 49.2615 24.9989 46.9691V41.666C24.9989 39.4138 26.637 37.5441 28.7868 37.1834V34.8479C28.7868 23.1327 38.2838 13.6357 49.9989 13.6357C61.714 13.6357 71.211 23.1327 71.211 34.8479V37.1834C73.3608 37.5441 74.9989 39.4138 74.9989 41.666V46.9691C74.9989 49.2615 73.3018 51.1576 71.0954 51.4695C70.3125 58.9717 65.6191 65.3109 59.0898 68.4126Z" fill="#D0C6AC"/>
<path d="M112.12 13.6357H12.1201V119.696H112.12V13.6357Z" fill="#FFB38C"/>
<path fill-rule="evenodd" clip-rule="evenodd" d="M71.2113 43.5596V52.2717C71.2113 63.9868 61.7144 73.4838 49.9992 73.4838C38.2841 73.4838 28.7871 63.9868 28.7871 52.2717V43.5596V49.2414C28.7871 60.9565 38.2841 70.4535 49.9992 70.4535C61.7144 70.4535 71.2113 60.9565 71.2113 49.2414V43.5596Z" fill="black" fill-opacity="0.1"/>
</g>
<mask id="mask3_1274_271" style="mask-type:alpha" maskUnits="userSpaceOnUse" x="12" y="69" width="76" height="38">
<path fill-rule="evenodd" clip-rule="evenodd" d="M40.908 69.3447C34.1206 70.1042 28.8928 72.1784 28.7884 77.5167C18.9938 81.6543 12.1201 91.3499 12.1201 102.651V106.06H87.8777V102.651C87.8777 91.3499 81.004 81.6543 71.2094 77.5167C71.105 72.1784 65.8772 70.1042 59.0898 69.3447V76.5148C59.0898 81.5356 55.0197 85.6058 49.9989 85.6058C44.9781 85.6058 40.908 81.5356 40.908 76.5148V69.3447Z" fill="white"/>
</mask>
<g mask="url(#mask3_1274_271)">
<path fill-rule="evenodd" clip-rule="evenodd" d="M40.908 69.3447C34.1206 70.1042 28.8928 72.1784 28.7884 77.5167C18.9938 81.6543 12.1201 91.3499 12.1201 102.651V106.06H87.8777V102.651C87.8777 91.3499 81.004 81.6543 71.2094 77.5167C71.105 72.1784 65.8772 70.1042 59.0898 69.3447V76.5148C59.0898 81.5356 55.0197 85.6058 49.9989 85.6058C44.9781 85.6058 40.908 81.5356 40.908 76.5148V69.3447Z" fill="#B7C1DB"/>
<path d="M99.999 64.3936H-0.000976562V106.06H99.999V64.3936Z" fill="url(#paint0_linear_1274_271)"/>
<path fill-rule="evenodd" clip-rule="evenodd" d="M38.6359 87.7793V106.06H35.9844V86.4199C36.8191 86.9161 37.7066 87.3709 38.6359 87.7793ZM64.0147 86.4199V101.704C64.0147 102.436 63.4211 103.03 62.6889 103.03C61.9567 103.03 61.3632 102.436 61.3632 101.704V87.7793C62.2924 87.3709 63.1799 86.9161 64.0147 86.4199Z" fill="black"/>
<path fill-rule="evenodd" clip-rule="evenodd" d="M34.4536 69.2139C28.7525 70.2922 24.8096 72.4406 24.8096 76.6318C24.8096 84.0986 37.3238 90.1516 49.999 90.1516C62.6741 90.1516 75.1884 84.0986 75.1884 76.6318C75.1884 72.4406 71.2454 70.2922 65.5444 69.2139C68.9857 70.4828 71.2111 72.616 71.2111 76.1656C71.2111 83.8899 60.6727 90.1516 49.999 90.1516C39.3252 90.1516 28.7868 83.8899 28.7868 76.1656C28.7868 72.616 31.0123 70.4828 34.4536 69.2139Z" fill="#FFB800" fill-opacity="0.16"/>
</g>
<mask id="mask4_1274_271" style="mask-type:alpha" maskUnits="userSpaceOnUse" x="42" y="55" width="16" height="8">
<path fill-rule="evenodd" clip-rule="evenodd" d="M42.8477 56.4848C43.2484 60.0802 46.2977 62.8757 50 62.8757C53.7137 62.8757 56.7704 60.0629 57.156 56.4515C57.187 56.1608 56.8624 55.6787 56.4556 55.6787C50.8139 55.6787 46.4916 55.6787 43.5935 55.6787C43.1843 55.6787 42.8076 56.1251 42.8477 56.4848Z" fill="white"/>
</mask>
<g mask="url(#mask4_1274_271)">
<path fill-rule="evenodd" clip-rule="evenodd" d="M42.8477 56.4848C43.2484 60.0801 46.2977 62.8757 50 62.8757C53.7137 62.8757 56.7705 60.0628 57.156 56.4515C57.187 56.1608 56.8624 55.6787 56.4556 55.6787C50.8139 55.6787 46.4916 55.6787 43.5935 55.6787C43.1843 55.6787 42.8076 56.1251 42.8477 56.4848Z" fill="black" fill-opacity="0.7"/>
<path d="M54.1669 51.5127H46.2123C45.1663 51.5127 44.3184 52.3606 44.3184 53.4066V55.6794C44.3184 56.7254 45.1663 57.5733 46.2123 57.5733H54.1669C55.2128 57.5733 56.0608 56.7254 56.0608 55.6794V53.4066C56.0608 52.3606 55.2128 51.5127 54.1669 51.5127Z" fill="white"/>
<path d="M48.1071 68.18C50.4083 68.18 52.2738 66.3145 52.2738 64.0133C52.2738 61.7122 50.4083 59.8467 48.1071 59.8467C45.8059 59.8467 43.9404 61.7122 43.9404 64.0133C43.9404 66.3145 45.8059 68.18 48.1071 68.18Z" fill="#FF4F6D"/>
<path d="M51.8942 68.18C54.1954 68.18 56.0609 66.3145 56.0609 64.0134C56.0609 61.7122 54.1954 59.8467 51.8942 59.8467C49.593 59.8467 47.7275 61.7122 47.7275 64.0134C47.7275 66.3145 49.593 68.18 51.8942 68.18Z" fill="#FF4F6D"/>
</g>
<path fill-rule="evenodd" clip-rule="evenodd" d="M45.4561 49.2422C45.4561 50.9158 47.4911 52.2725 50.0015 52.2725C52.5119 52.2725 54.547 50.9158 54.547 49.2422" fill="black" fill-opacity="0.16"/>
<path fill-rule="evenodd" clip-rule="evenodd" d="M34.9093 42.5926C35.6087 41.1536 37.1836 40.1504 39.0144 40.1504C40.8387 40.1504 42.4089 41.1465 43.112 42.5773C43.3209 43.0024 43.0237 43.3502 42.7239 43.0924C41.7954 42.2942 40.4769 41.7958 39.0144 41.7958C37.5976 41.7958 36.316 42.2636 35.3932 43.0184C35.0558 43.2944 34.7047 43.0134 34.9093 42.5926Z" fill="black" fill-opacity="0.6"/>
<path fill-rule="evenodd" clip-rule="evenodd" d="M56.879 42.5926C57.5785 41.1536 59.1534 40.1504 60.9841 40.1504C62.8084 40.1504 64.3786 41.1465 65.0818 42.5773C65.2906 43.0024 64.9934 43.3502 64.6936 43.0924C63.7651 42.2942 62.4467 41.7958 60.9841 41.7958C59.5673 41.7958 58.2857 42.2636 57.3629 43.0184C57.0255 43.2944 56.6745 43.0134 56.879 42.5926Z" fill="black" fill-opacity="0.6"/>
<path d="M34.7082 37.5584C36.1911 35.4718 40.2565 34.3017 43.7585 35.1617C44.1648 35.2615 44.5751 35.013 44.6748 34.6066C44.7746 34.2003 44.5261 33.79 44.1198 33.6903C40.0529 32.6915 35.3452 34.0465 33.4731 36.6807C33.2308 37.0218 33.3107 37.4947 33.6518 37.7371C33.9928 37.9795 34.4658 37.8995 34.7082 37.5584Z" fill="black" fill-opacity="0.6"/>
<path d="M65.2918 37.5584C63.8089 35.4718 59.7435 34.3017 56.2415 35.1617C55.8352 35.2615 55.4249 35.013 55.3252 34.6066C55.2254 34.2003 55.4739 33.79 55.8802 33.6903C59.9471 32.6915 64.6548 34.0465 66.5269 36.6807C66.7692 37.0218 66.6893 37.4947 66.3482 37.7371C66.0072 37.9795 65.5342 37.8995 65.2918 37.5584Z" fill="black" fill-opacity="0.6"/>
<mask id="mask5_1274_271" style="mask-type:alpha" maskUnits="userSpaceOnUse" x="-1" y="-1" width="101" height="108">
<path d="M99.999 -0.000976562H-0.000976562V106.06H99.999V-0.000976562Z" fill="#D0C3C3"/>
</mask>
<g mask="url(#mask5_1274_271)">
<mask id="mask6_1274_271" style="mask-type:alpha" maskUnits="userSpaceOnUse" x="27" y="6" width="45" height="32">
<path fill-rule="evenodd" clip-rule="evenodd" d="M67.8607 15.1205C66.8153 14.0523 65.6015 13.1456 64.421 12.2364C64.1605 12.036 63.8958 11.8404 63.6412 11.6324C63.5833 11.5851 62.9902 11.1603 62.9193 11.004C62.7485 10.628 62.8474 10.9208 62.871 10.472C62.9008 9.90458 64.0579 8.30185 63.1945 7.93431C62.8146 7.77266 62.137 8.20285 61.7727 8.34494C61.06 8.62301 60.3386 8.86016 59.6019 9.06464C59.9548 8.36133 60.6278 6.95344 59.3629 7.33026C58.3775 7.62383 57.4592 8.37862 56.4689 8.7337C56.7966 8.19663 58.1068 6.53239 56.9229 6.43936C56.5544 6.41039 55.4823 7.1015 55.0857 7.24892C53.8975 7.69056 52.6839 7.976 51.4364 8.20082C47.1948 8.96526 42.2346 8.7473 38.3102 10.6784C35.2847 12.1671 32.2972 14.4771 30.5495 17.4186C28.8649 20.2538 28.2348 23.3567 27.8823 26.6056C27.6235 28.99 27.6025 31.4546 27.7235 33.8476C27.763 34.6316 27.8512 38.2456 28.9902 37.1511C29.5577 36.6058 29.5535 34.4037 29.6964 33.6583C29.9808 32.1753 30.2546 30.6857 30.7289 29.2501C31.5645 26.7203 32.5504 24.0255 34.6322 22.2831C35.9682 21.1651 36.9064 19.654 38.1849 18.5261C38.7592 18.0195 38.321 18.0722 39.2444 18.1387C39.8647 18.1833 40.4877 18.2003 41.1093 18.2166C42.5472 18.254 43.9873 18.2444 45.4256 18.2495C48.3221 18.2599 51.2051 18.3009 54.0988 18.1492C55.3848 18.0819 56.6743 18.0454 57.9568 17.9265C58.6733 17.86 59.9446 17.4008 60.5343 17.7517C61.0741 18.0727 61.6346 19.121 62.0221 19.5503C62.9378 20.5648 64.0295 21.3397 65.1002 22.1716C67.3328 23.9063 68.4601 26.0849 69.1381 28.7958C69.8137 31.4965 69.6243 34.0022 70.4605 36.66C70.6076 37.1273 70.9966 37.9328 71.4763 37.2108C71.5654 37.0767 71.5423 36.3396 71.5423 35.9155C71.5423 34.2035 71.9759 32.9189 71.9704 31.1957C71.9491 25.9563 71.7797 19.1244 67.8607 15.1205Z" fill="white"/>
</mask>
<g mask="url(#mask6_1274_271)">
<path fill-rule="evenodd" clip-rule="evenodd" d="M67.8607 15.1205C66.8153 14.0523 65.6016 13.1456 64.421 12.2364C64.1605 12.036 63.8959 11.8404 63.6412 11.6324C63.5833 11.5851 62.9902 11.1603 62.9193 11.004C62.7485 10.628 62.8474 10.9208 62.871 10.472C62.9008 9.90458 64.0579 8.30186 63.1945 7.93431C62.8146 7.77266 62.1371 8.20285 61.7727 8.34494C61.06 8.62301 60.3386 8.86016 59.6019 9.06465C59.9549 8.36133 60.6279 6.95344 59.3629 7.33026C58.3775 7.62383 57.4592 8.37862 56.4689 8.73371C56.7966 8.19663 58.1069 6.53239 56.9229 6.43936C56.5545 6.41039 55.4824 7.1015 55.0857 7.24892C53.8975 7.69056 52.6839 7.976 51.4364 8.20082C47.1948 8.96526 42.2346 8.7473 38.3102 10.6784C35.2847 12.1671 32.2972 14.4771 30.5495 17.4186C28.8649 20.2538 28.2349 23.3567 27.8823 26.6056C27.6235 28.99 27.6025 31.4546 27.7235 33.8476C27.763 34.6316 27.8512 38.2456 28.9902 37.1511C29.5577 36.6058 29.5535 34.4037 29.6964 33.6583C29.9808 32.1753 30.2546 30.6857 30.7289 29.2501C31.5646 26.7203 32.5504 24.0255 34.6322 22.2831C35.9683 21.1651 36.9064 19.654 38.1849 18.5261C38.7592 18.0195 38.321 18.0722 39.2444 18.1387C39.8647 18.1833 40.4878 18.2003 41.1093 18.2166C42.5472 18.254 43.9874 18.2444 45.4256 18.2495C48.3221 18.2599 51.2051 18.3009 54.0988 18.1492C55.3848 18.0819 56.6743 18.0454 57.9569 17.9265C58.6733 17.86 59.9446 17.4008 60.5344 17.7517C61.0741 18.0727 61.6346 19.121 62.0221 19.5503C62.9378 20.5648 64.0295 21.3397 65.1002 22.1716C67.3329 23.9063 68.4601 26.085 69.1382 28.7958C69.8137 31.4965 69.6243 34.0022 70.4605 36.66C70.6076 37.1273 70.9967 37.9328 71.4763 37.2108C71.5654 37.0767 71.5423 36.3396 71.5423 35.9155C71.5423 34.2035 71.9759 32.9189 71.9705 31.1957C71.9492 25.9563 71.7798 19.1244 67.8607 15.1205Z" fill="#1F3140"/>
<path d="M99.623 -0.000976562H-0.376953V106.06H99.623V-0.000976562Z" fill="#6C4326"/>
<g filter="url(#filter0_d_1274_271)">
<path d="M38.2578 50.3789H37.2131C31.9376 50.3789 28.7881 47.4759 28.7881 42.6138C28.7881 38.6846 29.4763 34.8486 37.7009 34.8486H38.8146C47.0392 34.8486 47.7275 38.6846 47.7275 42.6138C47.7275 47.1852 43.834 50.3789 38.2578 50.3789ZM37.6462 37.1214C30.3032 37.1214 30.3032 39.7127 30.3032 42.9932C30.3032 45.6713 31.4836 48.8638 37.1104 48.8638H38.2578C42.9415 48.8638 46.2123 46.4498 46.2123 42.9932C46.2123 39.7127 46.2123 37.1214 38.8694 37.1214H37.6462Z" fill="#6C4326"/>
<path d="M61.7431 50.3789H60.6985C55.4229 50.3789 52.2734 47.4759 52.2734 42.6138C52.2734 38.6846 52.9617 34.8486 61.1863 34.8486H62.3C70.5246 34.8486 71.2128 38.6846 71.2128 42.6138C71.2128 47.1852 67.3194 50.3789 61.7431 50.3789ZM61.1315 37.1214C53.7886 37.1214 53.7886 39.7127 53.7886 42.9932C53.7886 45.6713 54.9702 48.8638 60.5958 48.8638H61.7431C66.4268 48.8638 69.6977 46.4498 69.6977 42.9932C69.6977 39.7127 69.6977 37.1214 62.3547 37.1214H61.1315Z" fill="#6C4326"/>
<path d="M26.4981 37.0348C26.7599 36.779 29.6249 34.8486 37.6895 34.8486C44.4514 34.8486 45.8828 35.5504 48.0494 36.6107L48.208 36.689C48.3587 36.7422 49.129 37.0039 50.0301 37.0326C50.851 36.9974 51.5532 36.7749 51.7583 36.7036C54.2313 35.5009 56.652 34.8486 62.3107 34.8486C70.3753 34.8486 73.2403 36.779 73.5022 37.0348C74.1211 37.0348 74.6213 37.5234 74.6213 38.1279V39.221C74.6213 39.8255 74.1211 40.3141 73.5022 40.3141C73.5022 40.3141 70.888 40.3141 70.888 41.4072C70.888 42.5003 70.1447 39.8255 70.1447 39.221V38.1564C68.7799 37.634 66.3366 36.6616 62.3107 36.6616C57.8253 36.6616 55.5914 37.457 53.6752 38.2468L53.6967 38.2985L53.6957 39.0508L52.8559 41.0773L51.8185 40.6671C51.7258 40.6305 51.5259 40.5647 51.2487 40.4963C50.476 40.3057 49.6815 40.2477 48.9789 40.3919C48.7212 40.4448 48.482 40.5242 48.2625 40.6315L47.2617 41.1206L46.2602 39.1654L46.3047 38.2963L46.3353 38.2224C44.6827 37.4524 43.1589 36.6616 37.6895 36.6616C33.6638 36.6616 31.2206 37.6336 29.8555 38.156V39.221C29.8555 39.8255 28.7363 42.5003 28.7363 41.4072C28.7363 40.3141 26.4981 40.3141 26.4981 40.3141C25.8803 40.3141 25.3789 39.8255 25.3789 39.221V38.1279C25.3789 37.5234 25.8803 37.0348 26.4981 37.0348Z" fill="#6C4326"/>
</g>
</g>
</g>
</g>
<defs>
<filter id="filter0_d_1274_271" x="19.3638" y="31.8411" width="61.2725" height="27.5606" filterUnits="userSpaceOnUse" color-interpolation-filters="sRGB">
<feFlood flood-opacity="0" result="BackgroundImageFix"/>
<feColorMatrix in="SourceAlpha" type="matrix" values="0 0 0 0 0 0 0 0 0 0 0 0 0 0 0 0 0 0 127 0" result="hardAlpha"/>
<feOffset dy="3.00758"/>
<feGaussianBlur stdDeviation="3.00758"/>
<feColorMatrix type="matrix" values="0 0 0 0 0 0 0 0 0 0 0 0 0 0 0 0 0 0 0.2 0"/>
<feBlend mode="normal" in2="BackgroundImageFix" result="effect1_dropShadow_1274_271"/>
<feBlend mode="normal" in="SourceGraphic" in2="effect1_dropShadow_1274_271" result="shape"/>
</filter>
<linearGradient id="paint0_linear_1274_271" x1="49.999" y1="64.3936" x2="49.999" y2="106.06" gradientUnits="userSpaceOnUse">
<stop stop-color="#FFC100"/>
<stop offset="1" stop-color="#FF7A00"/>
</linearGradient>
</defs>
</svg>
