<svg width="250" height="250" viewBox="0 0 250 250" fill="none" xmlns="http://www.w3.org/2000/svg">
<rect x="1.5" y="1.5" width="247" height="247" stroke="black" stroke-width="3" stroke-dasharray="24 24"/>
<path d="M132.089 131.522H156.633L225.044 225H199.978L132.089 131.522Z" fill="url(#paint0_linear_1274_221)"/>
<path d="M222.955 131H198.411L130 224.478H155.066L222.955 131Z" fill="url(#paint1_linear_1274_221)"/>
<rect x="201" y="25" width="24" height="94" fill="url(#paint2_linear_1274_221)"/>
<path fill-rule="evenodd" clip-rule="evenodd" d="M25 131H46V185H45.9959C46.1238 189.993 48.1631 194.755 51.704 198.296C55.3629 201.955 60.3255 204.01 65.5 204.01C70.6745 204.01 75.6371 201.955 79.296 198.296C82.8369 194.755 84.8762 189.993 85.0041 185H85V131H106V184.5V185H105.997C105.867 195.561 101.615 205.661 94.1378 213.138C86.5426 220.733 76.2413 225 65.5 225C54.7587 225 44.4574 220.733 36.8622 213.138C29.3849 205.661 25.1333 195.561 25.0031 185H25V184.5V131Z" fill="url(#paint3_linear_1274_221)"/>
<path fill-rule="evenodd" clip-rule="evenodd" d="M25 25H46V79H45.9959C46.1238 83.9933 48.1631 88.7551 51.704 92.296C55.3629 95.9549 60.3255 98.0105 65.5 98.0105C70.6745 98.0105 75.6371 95.9549 79.296 92.296C82.8369 88.7551 84.8762 83.9933 85.0041 79H85V25H106V78.5V79H105.997C105.867 89.5605 101.615 99.6605 94.1378 107.138C86.5426 114.733 76.2413 119 65.5 119C54.7587 119 44.4574 114.733 36.8622 107.138C29.3849 99.6605 25.1333 89.5605 25.0031 79H25V78.5V25Z" fill="url(#paint4_linear_1274_221)"/>
<defs>
<linearGradient id="paint0_linear_1274_221" x1="178.567" y1="131.522" x2="178.567" y2="225" gradientUnits="userSpaceOnUse">
<stop stop-color="#FFB300"/>
<stop offset="1" stop-color="#FF9500"/>
</linearGradient>
<linearGradient id="paint1_linear_1274_221" x1="176.477" y1="131" x2="176.477" y2="224.478" gradientUnits="userSpaceOnUse">
<stop stop-color="#FFB300"/>
<stop offset="1" stop-color="#FF9500"/>
</linearGradient>
<linearGradient id="paint2_linear_1274_221" x1="213" y1="25" x2="213" y2="119" gradientUnits="userSpaceOnUse">
<stop stop-color="#FFE800"/>
<stop offset="1" stop-color="#FFCA00"/>
</linearGradient>
<linearGradient id="paint3_linear_1274_221" x1="65.5" y1="131" x2="65.5" y2="225" gradientUnits="userSpaceOnUse">
<stop stop-color="#FFB300"/>
<stop offset="1" stop-color="#FF9400"/>
</linearGradient>
<linearGradient id="paint4_linear_1274_221" x1="65.5" y1="25" x2="65.5" y2="119" gradientUnits="userSpaceOnUse">
<stop stop-color="#FFE900"/>
<stop offset="1" stop-color="#FFCA00"/>
</linearGradient>
</defs>
</svg>
