<svg width="35" height="40" viewBox="0 0 35 40" fill="none" xmlns="http://www.w3.org/2000/svg">
<mask id="path-1-outside-1_1289_3481" maskUnits="userSpaceOnUse" x="0" y="0" width="29" height="31" fill="black">
<rect fill="white" width="29" height="31"/>
<path fill-rule="evenodd" clip-rule="evenodd" d="M1.01213 3.95764C1.0041 4.05069 1 4.14487 1 4.24V25.84C1 25.9351 1.0041 26.0293 1.01213 26.1224C1.00411 26.2072 1 26.2931 1 26.38C1 27.8712 2.20883 29.08 3.7 29.08H4.24H10.7552C10.7562 29.08 10.7573 29.08 10.7584 29.08L12.132 29.08L13.96 29.08C17.6836 29.08 21.2548 27.6008 23.8878 24.9678C26.5208 22.3348 28 18.7636 28 15.04C28 11.3164 26.5208 7.74523 23.8878 5.11222C21.2548 2.47921 17.6836 1 13.96 1H12.132H10.9543H4.24H3.7C2.20883 1 1 2.20883 1 3.7C1 3.7869 1.00411 3.87284 1.01213 3.95764ZM12.1816 6.39955C12.1651 6.39985 12.1486 6.4 12.132 6.4H7.48V23.68H12.132C12.1447 23.68 12.1574 23.6801 12.17 23.6803L13.96 23.6805C16.2516 23.6805 18.4493 22.7701 20.0697 21.1497C21.6901 19.5293 22.6005 17.3316 22.6005 15.04C22.6005 12.7484 21.6901 10.5507 20.0697 8.93028C18.4493 7.30988 16.2516 6.39955 13.96 6.39955H12.1816Z"/>
</mask>
<path fill-rule="evenodd" clip-rule="evenodd" d="M1.01213 3.95764C1.0041 4.05069 1 4.14487 1 4.24V25.84C1 25.9351 1.0041 26.0293 1.01213 26.1224C1.00411 26.2072 1 26.2931 1 26.38C1 27.8712 2.20883 29.08 3.7 29.08H4.24H10.7552C10.7562 29.08 10.7573 29.08 10.7584 29.08L12.132 29.08L13.96 29.08C17.6836 29.08 21.2548 27.6008 23.8878 24.9678C26.5208 22.3348 28 18.7636 28 15.04C28 11.3164 26.5208 7.74523 23.8878 5.11222C21.2548 2.47921 17.6836 1 13.96 1H12.132H10.9543H4.24H3.7C2.20883 1 1 2.20883 1 3.7C1 3.7869 1.00411 3.87284 1.01213 3.95764ZM12.1816 6.39955C12.1651 6.39985 12.1486 6.4 12.132 6.4H7.48V23.68H12.132C12.1447 23.68 12.1574 23.6801 12.17 23.6803L13.96 23.6805C16.2516 23.6805 18.4493 22.7701 20.0697 21.1497C21.6901 19.5293 22.6005 17.3316 22.6005 15.04C22.6005 12.7484 21.6901 10.5507 20.0697 8.93028C18.4493 7.30988 16.2516 6.39955 13.96 6.39955H12.1816Z" fill="url(#paint0_linear_1289_3481)"/>
<path d="M1.01213 3.95764L2.00843 4.04365L2.01621 3.95349L2.00768 3.8634L1.01213 3.95764ZM1.01213 26.1224L2.00768 26.2166L2.01621 26.1265L2.00843 26.0363L1.01213 26.1224ZM10.7584 29.08L10.7584 30.08L10.7584 30.08L10.7584 29.08ZM12.132 29.08L12.132 28.08L12.132 28.08L12.132 29.08ZM13.96 29.08L13.96 30.08H13.96V29.08ZM23.8878 24.9678L24.5949 25.6749L24.5949 25.6749L23.8878 24.9678ZM23.8878 5.11222L24.5949 4.40512L24.5949 4.40512L23.8878 5.11222ZM12.1816 6.39955V5.39955H12.1725L12.1634 5.39971L12.1816 6.39955ZM7.48 6.4V5.4H6.48V6.4H7.48ZM7.48 23.68H6.48V24.68H7.48V23.68ZM12.17 23.6803L12.156 24.6803L12.1699 24.6803L12.17 23.6803ZM13.96 23.6805L13.9599 24.6805H13.96V23.6805ZM20.0697 8.93028L19.3626 9.63739L19.3626 9.63739L20.0697 8.93028ZM13.96 6.39955L13.96 5.39955H13.96V6.39955ZM2 4.24C2 4.17361 2.00286 4.10813 2.00843 4.04365L0.0158386 3.87163C0.00533948 3.99325 0 4.11612 0 4.24H2ZM2 25.84V4.24H0V25.84H2ZM2.00843 26.0363C2.00286 25.9719 2 25.9064 2 25.84H0C0 25.9639 0.00533953 26.0868 0.0158388 26.2084L2.00843 26.0363ZM2 26.38C2 26.3246 2.00262 26.2701 2.00768 26.2166L0.0165838 26.0281C0.0055952 26.1442 0 26.2616 0 26.38H2ZM3.7 28.08C2.76112 28.08 2 27.3189 2 26.38H0C0 28.4235 1.65655 30.08 3.7 30.08V28.08ZM4.24 28.08H3.7V30.08H4.24V28.08ZM10.7552 28.08H4.24V30.08H10.7552V28.08ZM10.7552 30.08C10.7551 30.08 10.7552 30.08 10.7553 30.08C10.7554 30.08 10.7556 30.08 10.7559 30.08C10.7563 30.08 10.7573 30.08 10.7584 30.08V28.08C10.7584 28.08 10.7584 28.08 10.7582 28.08C10.7581 28.08 10.7579 28.08 10.7577 28.08C10.7572 28.08 10.7562 28.08 10.7552 28.08V30.08ZM10.7584 30.08L12.132 30.08L12.132 28.08L10.7584 28.08L10.7584 30.08ZM12.132 30.08L13.96 30.08L13.96 28.08L12.132 28.08L12.132 30.08ZM13.96 30.08C17.9489 30.08 21.7743 28.4954 24.5949 25.6749L23.1807 24.2607C20.7352 26.7061 17.4184 28.08 13.96 28.08V30.08ZM24.5949 25.6749C27.4154 22.8543 29 19.0289 29 15.04H27C27 18.4984 25.6261 21.8152 23.1807 24.2607L24.5949 25.6749ZM29 15.04C29 11.0511 27.4154 7.22566 24.5949 4.40512L23.1807 5.81933C25.6261 8.2648 27 11.5816 27 15.04H29ZM24.5949 4.40512C21.7743 1.58457 17.9489 0 13.96 0V2C17.4184 2 20.7352 3.37385 23.1807 5.81933L24.5949 4.40512ZM13.96 0H12.132V2H13.96V0ZM12.132 0H10.9543V2H12.132V0ZM4.24 2H10.9543V0H4.24V2ZM3.7 2H4.24V0H3.7V2ZM2 3.7C2 2.76112 2.76112 2 3.7 2V0C1.65655 0 0 1.65655 0 3.7H2ZM2.00768 3.8634C2.00262 3.80988 2 3.75539 2 3.7H0C0 3.81841 0.00559507 3.9358 0.0165837 4.05188L2.00768 3.8634ZM12.1634 5.39971C12.1529 5.3999 12.1425 5.4 12.132 5.4V7.4C12.1547 7.4 12.1773 7.39979 12.1998 7.39938L12.1634 5.39971ZM12.132 5.4H7.48V7.4H12.132V5.4ZM6.48 6.4V23.68H8.48V6.4H6.48ZM7.48 24.68H12.132V22.68H7.48V24.68ZM12.132 24.68C12.1401 24.68 12.1481 24.6801 12.156 24.6802L12.184 22.6804C12.1666 22.6801 12.1493 22.68 12.132 22.68V24.68ZM13.9601 22.6805L12.1701 22.6803L12.1699 24.6803L13.9599 24.6805L13.9601 22.6805ZM19.3626 20.4426C17.9298 21.8755 15.9864 22.6805 13.96 22.6805V24.6805C16.5168 24.6805 18.9689 23.6648 20.7768 21.8568L19.3626 20.4426ZM21.6005 15.04C21.6005 17.0664 20.7955 19.0098 19.3626 20.4426L20.7768 21.8568C22.5848 20.0489 23.6005 17.5968 23.6005 15.04H21.6005ZM19.3626 9.63739C20.7955 11.0702 21.6005 13.0136 21.6005 15.04H23.6005C23.6005 12.4832 22.5848 10.0311 20.7768 8.22317L19.3626 9.63739ZM13.96 7.39955C15.9864 7.39955 17.9298 8.20452 19.3626 9.63739L20.7768 8.22317C18.9689 6.41524 16.5168 5.39955 13.96 5.39955L13.96 7.39955ZM12.1816 7.39955H13.96V5.39955H12.1816V7.39955Z" fill="black" mask="url(#path-1-outside-1_1289_3481)"/>
<path d="M14.9741 38.599L14.9741 38.5991L14.9797 38.6006C17.1423 39.2008 19.4004 39.5 21.7526 39.5C24.5451 39.5 26.8885 39.0939 28.76 38.2552C30.6374 37.4261 32.0791 36.3193 33.0501 34.9191C34.0146 33.5279 34.5 31.9868 34.5 30.3084C34.5 28.771 34.1692 27.455 33.4721 26.393C32.8248 25.3656 31.9705 24.5369 30.915 23.9104C29.8857 23.2995 28.7465 22.8161 27.5001 22.4583C26.308 22.1083 25.102 21.7986 23.8823 21.5294C22.7061 21.2637 21.6274 20.9984 20.6457 20.7335C19.696 20.4773 18.9599 20.1519 18.4182 19.7707C17.9359 19.4066 17.7165 18.9652 17.7165 18.4125C17.7165 17.9029 17.862 17.4796 18.1454 17.1196L18.1456 17.1198L18.1538 17.1087C18.4308 16.7362 18.9212 16.3949 19.6935 16.1198C20.4453 15.8521 21.4415 15.7082 22.701 15.7082C23.9426 15.7082 25.0573 15.8636 26.5324 16.2524C27.2977 16.4542 27.9233 16.6596 28.5074 16.8958C29.8236 17.4281 31.442 16.9357 32.0247 15.5436L32.563 14.2572C33.0321 13.1364 32.637 11.7627 31.4568 11.2284C30.461 10.7775 29.3807 10.4204 28.2176 10.1554C26.4282 9.72102 24.8943 9.48031 22.7374 9.50126C20.0015 9.52784 17.6371 9.90656 15.7378 10.7448C13.8827 11.5489 12.4537 12.6581 11.4833 14.0861L11.4833 14.0861L11.482 14.0881C10.5459 15.4804 10.0773 17.0331 10.0773 18.7329C10.0773 20.2933 10.3928 21.6215 11.0613 22.6841L11.0612 22.6842L11.0668 22.6926C11.7408 23.7173 12.6074 24.5447 13.6623 25.1709C14.6873 25.7793 15.8087 26.2751 17.0245 26.6596L17.0276 26.6606C18.2491 27.0381 19.4574 27.3619 20.6527 27.6319L20.6527 27.632L20.6655 27.6346C21.8628 27.8724 22.9472 28.136 23.9196 28.4246L23.9196 28.4247L23.9316 28.428C24.8804 28.684 25.6141 29.0217 26.1535 29.4266L26.1592 29.4309L26.1651 29.4351C26.6358 29.7675 26.8608 30.2019 26.8608 30.789C26.8608 31.2564 26.7115 31.6629 26.4021 32.0278C26.0995 32.3847 25.5915 32.7049 24.8199 32.9553C24.0889 33.1748 23.0866 33.293 21.7938 33.293C20.1157 33.293 18.4493 33.0347 16.7931 32.5162C15.9866 32.2464 15.2348 31.9426 14.5371 31.6055C13.2135 30.9659 11.4748 31.3905 10.8157 32.8105L10.2314 34.0696C9.73999 35.1282 10.0323 36.4662 11.132 37.0665C12.2276 37.6646 13.5099 38.1742 14.9741 38.599Z" fill="url(#paint1_linear_1289_3481)" stroke="black"/>
<defs>
<linearGradient id="paint0_linear_1289_3481" x1="14.5" y1="1" x2="14.5" y2="29.08" gradientUnits="userSpaceOnUse">
<stop stop-color="#FFE900"/>
<stop offset="1" stop-color="#FFB300"/>
</linearGradient>
<linearGradient id="paint1_linear_1289_3481" x1="22" y1="10" x2="22" y2="39" gradientUnits="userSpaceOnUse">
<stop stop-color="#FFCA00"/>
<stop offset="1" stop-color="#FF9400"/>
</linearGradient>
</defs>
</svg>
